# xmcd CD database file
#
# Track frame offsets:
#	150
#	19612
#	41190
#	71947
#	83837
#	101235
#	128995
#	144442
#	171950
#	193712
#	208370
#	232585
#	261890
#	289747
#
# Disc length: 4270 seconds
#
# Revision: 0
# Processed by: cddbd v1.5.1PL0 Copyright (c) Steve Scherf et al.
# Submitted via: CDex 1.51
#
DISCID=d410ac0e
DTITLE=松野弘明 - Nuovo Cinema Paradiso
DYEAR=1993
DGENRE=New Age
TTITLE0=ラマン・愛人
TTITLE1=眺めのいい部屋
TTITLE2=IP5
TTITLE3=みんな元気
TTITLE4=モーリス
TTITLE5=デリカテッセン
TTITLE6=ベティー・ブルー
TTITLE7=これからの人生
TTITLE8=五月のミル
TTITLE9=マルセルの夏
TTITLE10=バグダッド・カフェ
TTITLE11=コックと泥棒、その妻と愛人
TTITLE12=ダメージ
TTITLE13=ニュー・シネマ・パラダイス
EXTD=YEAR: 1993
EXTT0=
EXTT1=
EXTT2=
EXTT3=
EXTT4=
EXTT5=
EXTT6=
EXTT7=
EXTT8=
EXTT9=
EXTT10=
EXTT11=
EXTT12=
EXTT13=
PLAYORDER=
